<svg width="28" height="28" viewBox="0 0 28 28" fill="none" xmlns="http://www.w3.org/2000/svg">
<circle opacity="0.2" cx="14" cy="14" r="14" fill="white"/>
<path d="M14 12.3337C13.0791 12.3337 12.3333 13.0795 12.3333 14.0003C12.3333 14.9212 13.0791 15.667 14 15.667C14.9208 15.667 15.6666 14.9212 15.6666 14.0003C15.6666 13.0795 14.9208 12.3337 14 12.3337ZM17.725 13.5837C17.5333 11.8462 16.1541 10.467 14.4166 10.2753V9.41699H13.5833V10.2753C11.8458 10.467 10.4666 11.8462 10.275 13.5837H9.41663V14.417H10.275C10.4666 16.1545 11.8458 17.5337 13.5833 17.7253V18.5837H14.4166V17.7253C16.1541 17.5337 17.5333 16.1545 17.725 14.417H18.5833V13.5837H17.725V13.5837ZM14 16.917C12.3895 16.917 11.0833 15.6107 11.0833 14.0003C11.0833 12.3899 12.3895 11.0837 14 11.0837C15.6104 11.0837 16.9166 12.3899 16.9166 14.0003C16.9166 15.6107 15.6104 16.917 14 16.917Z" fill="white"/>
</svg>
